2.5Hzhigh3min_grf.mot
version=1
nRows=27
nColumns 19
inDegrees=yes
endheader
time	1_ground_force_vx	1_ground_force_vy	1_ground_force_vz	1_ground_force_px	1_ground_force_py	1_ground_force_pz	1_ground_torque_x	1_ground_torque_y	1_ground_torque_z	2_ground_force_vx	2_ground_force_vy	2_ground_force_vz	2_ground_force_px	2_ground_force_py	2_ground_force_pz	2_ground_torque_x	2_ground_torque_y	2_ground_torque_z
            2.502500	            0.140420	            1.616913	            1.290581	           -0.233013	            0.005581	           -0.255695	           -0.412510	            0.101787	           -0.011531	            0.748337	            0.191709	           -1.360577	           -0.232311	            0.006130	           -0.833667	           -0.150205	           -0.028699	           -0.056588
            2.503000	            0.323304	            1.798000	            1.107475	           -0.233013	            0.005581	           -0.255695	           -0.292358	            0.203888	           -0.078772	            0.798366	           -0.727692	           -1.692379	           -0.232311	            0.006130	           -0.833667	           -0.131139	           -0.104320	           -0.038015
            2.503500	            0.231130	            1.979035	            0.925052	           -0.233013	            0.005581	           -0.255695	           -0.303425	            0.148377	           -0.082898	            0.797140	           -0.360232	           -1.456424	           -0.232311	            0.006130	           -0.833667	           -0.168565	           -0.142334	           -0.019284
            2.504000	            0.323613	            1.977676	            1.245816	           -0.233013	            0.005581	           -0.255695	           -0.336032	           -0.008391	           -0.154772	            0.557553	            1.112276	           -1.497996	           -0.232311	            0.006130	           -0.833667	           -0.206511	           -0.038490	           -0.018897
            2.504500	            0.048342	            2.518617	            1.202961	           -0.233013	            0.005581	           -0.255695	           -0.296737	           -0.184378	           -0.110977	            0.280983	           -0.176773	           -1.784045	           -0.232311	            0.006130	           -0.833667	           -0.225680	            0.065489	           -0.037368
            2.505000	            0.232074	            1.797196	            1.291126	           -0.233013	            0.005581	           -0.255695	           -0.281160	           -0.184690	           -0.009182	            0.466512	            0.375344	           -1.500584	           -0.232311	            0.006130	           -0.833667	           -0.188348	            0.131794	           -0.037148
            2.505500	            0.186051	            2.157915	            1.246930	           -0.233013	            0.005581	           -0.255695	           -0.354836	           -0.036349	           -0.123120	            0.557471	            1.112945	           -1.685708	           -0.232311	            0.006130	           -0.833667	           -0.113053	            0.094120	            0.000385
            2.506000	            0.185646	            1.257570	            1.013786	           -0.233013	            0.005581	           -0.255695	           -0.212821	            0.101837	           -0.010059	            0.562144	           -0.176260	           -1.643380	           -0.232311	            0.006130	           -0.833667	           -0.187861	           -0.009795	           -0.094205
            2.506500	            0.460509	            1.077751	            0.920618	           -0.233013	            0.005581	           -0.255695	           -0.340344	            0.287046	           -0.053608	            0.512676	            0.559829	           -1.546875	           -0.232311	            0.006130	           -0.833667	           -0.168905	           -0.056990	           -0.094381
            2.507000	            0.415233	            2.338225	            1.247134	           -0.233013	            0.005581	           -0.255695	           -0.298820	            0.084254	           -0.188167	            0.560856	            0.191701	           -1.548209	           -0.232311	            0.006130	           -0.833667	           -0.168837	           -0.075896	           -0.094449
            2.507500	            0.232139	            1.436665	            1.289580	           -0.233013	            0.005581	           -0.255695	           -0.374897	           -0.101357	           -0.046176	            0.607685	            0.192038	           -1.595157	           -0.232311	            0.006130	           -0.833667	           -0.187784	           -0.028767	           -0.075422
            2.508000	            0.231846	            1.797589	            1.199414	           -0.233013	            0.005581	           -0.255695	           -0.371384	           -0.211958	           -0.121864	            0.419580	            0.375844	           -1.688277	           -0.232311	            0.006130	           -0.833667	           -0.207141	            0.131793	           -0.055991
            2.508500	            0.278046	            2.337609	            1.385043	           -0.233013	            0.005581	           -0.255695	           -0.360788	           -0.147224	           -0.119677	            0.606897	            0.377191	           -1.876069	           -0.232311	            0.006130	           -0.833667	           -0.207058	            0.121937	            0.057077
            2.509000	            0.278015	            1.256408	            1.288694	           -0.233013	            0.005581	           -0.255695	           -0.356121	            0.028237	           -0.081302	            0.467738	            0.007884	           -1.736539	           -0.232311	            0.006130	           -0.833667	           -0.225596	            0.055633	            0.075699
            2.509500	            0.415886	            1.255845	            1.425920	           -0.233013	            0.005581	           -0.255695	           -0.249368	            0.185463	           -0.075029	            0.748879	            0.008564	           -1.642802	           -0.232311	            0.006130	           -0.833667	           -0.168863	           -0.057327	           -0.000130
            2.510000	            0.369294	            1.617547	            1.152444	           -0.233013	            0.005581	           -0.255695	           -0.256647	            0.194675	           -0.076939	            0.513320	            0.375848	           -1.594461	           -0.232311	            0.006130	           -0.833667	           -0.168634	           -0.114245	            0.056218
            2.510500	            0.139947	            2.338565	            1.156105	           -0.233013	            0.005581	           -0.255695	           -0.332250	            0.083714	           -0.105824	            0.699473	            0.744152	           -1.405514	           -0.232311	            0.006130	           -0.833667	           -0.225041	           -0.104861	            0.018575
            2.511000	            0.323628	            2.518276	            1.293991	           -0.233013	            0.005581	           -0.255695	           -0.244226	           -0.091965	           -0.061387	            0.702090	            0.007893	           -1.501998	           -0.232311	            0.006130	           -0.833667	           -0.150138	           -0.038421	            0.018779
            2.511500	            0.369243	            2.518679	            1.202165	           -0.233013	            0.005581	           -0.255695	           -0.183883	           -0.193774	           -0.022422	            0.512635	            0.560164	           -1.640732	           -0.232311	            0.006130	           -0.833667	           -0.169326	            0.084060	            0.113477
            2.512000	            0.461321	            1.616975	            1.289784	           -0.233013	            0.005581	           -0.255695	           -0.337539	           -0.091840	           -0.074057	            0.604382	            1.112612	           -1.544944	           -0.232311	            0.006130	           -0.833667	           -0.150642	            0.103303	            0.038135
            2.512500	            0.415119	            2.338422	            1.201278	           -0.233013	            0.005581	           -0.255695	           -0.259317	            0.065773	           -0.188344	            0.236209	           -0.730057	           -1.598283	           -0.232311	            0.006130	           -0.833667	           -0.169221	            0.037335	           -0.037494
            2.513000	            0.323157	            1.978462	            1.062392	           -0.233013	            0.005581	           -0.255695	           -0.196524	            0.231394	           -0.022504	            0.419682	            0.375008	           -1.453636	           -0.232311	            0.006130	           -0.833667	           -0.169034	           -0.010063	            0.000038
            2.513500	            0.277216	            2.519251	            1.064825	           -0.233013	            0.005581	           -0.255695	           -0.347082	            0.138990	           -0.043298	            0.419038	            0.558989	           -1.406051	           -0.232311	            0.006130	           -0.833667	           -0.168615	           -0.132747	           -0.056951
            2.514000	            0.460962	            2.338431	            1.201164	           -0.233013	            0.005581	           -0.255695	           -0.334061	           -0.008732	           -0.054937	            0.656590	           -0.360740	           -1.456364	           -0.232311	            0.006130	           -0.833667	           -0.131190	           -0.085549	           -0.000248
            2.514500	           -0.180660	            1.977579	            1.247067	           -0.233013	            0.005581	           -0.255695	           -0.166873	           -0.175374	           -0.083419	            0.513985	            0.191700	           -1.595118	           -0.232311	            0.006130	           -0.833667	           -0.225483	            0.008840	           -0.056421
            2.515000	            0.231909	            2.698524	            1.294991	           -0.233013	            0.005581	           -0.255695	           -0.225616	           -0.147384	           -0.084385	            0.422903	           -0.544897	           -1.691562	           -0.232311	            0.006130	           -0.833667	           -0.263260	            0.074605	            0.019232
            2.515500	            0.277509	            2.158326	            1.154991	           -0.233013	            0.005581	           -0.255695	           -0.275723	           -0.101160	           -0.082088	            0.514691	            0.007217	           -1.501918	           -0.232311	            0.006130	           -0.833667	           -0.263310	            0.084192	           -0.018435
